<svg xmlns="http://www.w3.org/2000/svg" viewBox="0 0 552.96 540.86"><defs><style>.cls-1{fill:#58595b;}.cls-2{fill:none;}.cls-3{fill:#fff;}.cls-4{fill:#b3b3b3;}.cls-5{fill:#999;}</style></defs><g id="Layer_2" data-name="Layer 2"><g id="Layer_1-2" data-name="Layer 1"><circle class="cls-1" cx="303.21" cy="249.91" r="249.39"/><polygon class="cls-2" points="244.27 297.63 283.49 297.63 233.08 426.55 233.74 426.55 211.72 482.58 211.17 482.58 211.17 482.58 108.28 482.58 108.28 482.58 108.28 482.58 108.3 482.53 252.29 114.29 0 114.29 0 540.86 349.46 540.86 349.46 114.29 315.96 114.29 244.27 297.63"/><polygon class="cls-3" points="130.31 426.55 233.08 426.55 283.49 297.63 244.27 297.63 315.96 114.29 252.29 114.29 108.3 482.53 130.31 426.55"/><rect class="cls-3" x="108.28" y="482.58" width="102.89"/><polygon class="cls-4" points="108.3 482.53 108.28 482.58 108.28 482.58 211.17 482.58 211.72 482.58 233.74 426.55 233.08 426.55 130.31 426.55 108.3 482.53"/><path class="cls-2" d="M51.9,250.53a249.8,249.8,0,0,0,76.61,180.32L297,.07C161.11,3,51.9,114,51.9,250.53Z"/><path class="cls-2" d="M358.21,6.24,244.27,297.63h39.22L233.08,426.55h.66l-22,56h-3.87a249.76,249.76,0,0,0,94.58,18.49C440.8,501.07,553,388.9,553,250.53,553,131.34,469.72,31.6,358.21,6.24Z"/><path class="cls-3" d="M233.08,426.55l50.41-128.92H244.27L358.21,6.24A251.3,251.3,0,0,0,302.43,0c-1.83,0-3.66,0-5.48.07L128.51,430.85l.08.07,1.72-4.37Z"/><polygon class="cls-3" points="211.17 482.58 207.85 482.58 207.85 482.58 211.17 482.58 211.17 482.58"/><path class="cls-4" d="M211.72,482.58l22-56H130.31l-1.72,4.37a250.9,250.9,0,0,0,79.26,51.66h3.87Z"/><path class="cls-4" d="M349.46,426.55l-22.2,56.5h7.26L490.31,84.61c-1.93-2.18-3.89-4.34-5.89-6.45L348.2,426.55Z"/><path class="cls-3" d="M303.94,298.09h-8.41l-72.31,185h.6L246,426.55H348.2L484.42,78.16a251.86,251.86,0,0,0-48.18-39.62L334.75,298.09Z"/><polygon class="cls-4" points="348.2 426.55 246.03 426.55 223.82 483.05 231.63 483.05 326.11 483.05 327.25 483.05 349.46 426.55 348.2 426.55"/><path d="M326.81,291.37l100.88-258a249.49,249.49,0,0,0-44.28-20.12L274.66,291.37h-19L366.46,8.13h0L255.71,291.37Z"/><path class="cls-5" d="M274.66,291.37,383.41,13.24q-8.36-2.85-17-5.11L255.71,291.37Z"/></g></g></svg>