<svg xmlns="http://www.w3.org/2000/svg" viewBox="0 0 552.96 540.66"><defs><style>.cls-1{fill:#231f20;}.cls-2{fill:none;}.cls-3{fill:#fff;}.cls-4{fill:#b3b3b3;}.cls-5{fill:#999;}</style></defs><g id="Layer_2" data-name="Layer 2"><g id="Layer_1-2" data-name="Layer 1"><rect class="cls-1" x="150.59" y="429.75" width="160.43" height="53.22"/><circle class="cls-1" cx="308.42" cy="242.7" r="240.18"/><polygon class="cls-2" points="244.27 297.51 283.49 297.51 233.08 426.39 233.74 426.39 211.72 482.4 211.17 482.4 211.17 482.4 108.28 482.4 108.28 482.4 108.28 482.4 108.3 482.35 252.29 114.25 0 114.25 0 540.66 349.46 540.66 349.46 114.25 315.96 114.25 244.27 297.51"/><polygon class="cls-3" points="130.31 426.39 233.08 426.39 283.49 297.51 244.27 297.51 315.96 114.25 252.29 114.25 108.3 482.35 130.31 426.39"/><rect class="cls-3" x="108.28" y="482.4" width="102.89"/><polygon class="cls-4" points="211.38 483.07 233.16 426.39 232.5 426.39 130.21 426.39 108.3 483.35 211.38 483.07"/><path class="cls-2" d="M51.9,250.44a249.62,249.62,0,0,0,76.61,180.24L297,.07C161.11,3,51.9,114,51.9,250.44Z"/><path class="cls-2" d="M358.21,6.24,244.27,297.52h39.22L233.08,426.39h.66l-22,56h-3.87a249.94,249.94,0,0,0,94.58,18.48C440.8,500.88,553,388.75,553,250.44,553,131.29,469.72,31.58,358.21,6.24Z"/><path class="cls-3" d="M233.08,426.39l50.41-128.87H244.27L358.21,6.24A251.3,251.3,0,0,0,302.43,0c-1.83,0-3.66,0-5.48.07L128.51,430.68l.08.08,1.72-4.37Z"/><path class="cls-3" d="M303.94,298h-8.41L223.22,482.86h.6L246,426.39H348.2L484.42,78.13a251.39,251.39,0,0,0-48.18-39.6L334.75,298Z"/><path class="cls-5" d="M280.93,282.4l105-267.5q-8.34-2.85-16.95-5.11L262,282.4Z"/><path class="cls-4" d="M352.85,435.37,490,84.72q-2.89-3.27-5.89-6.44L347.9,426.53H245L222.53,483C321.19,483.22,346.92,447.62,352.85,435.37Z"/></g></g></svg>